<svg width="62" height="52" viewBox="0 0 62 52" fill="none" xmlns="http://www.w3.org/2000/svg">
<path d="M3.875 7.9585C7.30437 6.52475 12.2218 4.97862 17.0035 4.49812C22.1573 3.97887 26.5283 4.74225 29.0625 7.41212V45.1779C25.4394 43.1241 20.8475 42.8412 16.6121 43.2675C12.0396 43.7325 7.42837 45.0539 3.875 46.4101V7.9585ZM32.9375 7.41212C35.4717 4.74225 39.8428 3.97887 44.9965 4.49812C49.7783 4.97862 54.6956 6.52475 58.125 7.9585V46.4101C54.5678 45.0539 49.9604 43.7286 45.3879 43.2714C41.1486 42.8412 36.5606 43.1202 32.9375 45.1779V7.41212ZM31 3.90912C27.1831 0.626996 21.6496 0.138746 16.6121 0.642496C10.7454 1.23537 4.82438 3.2465 1.13538 4.92437C0.79689 5.07832 0.509854 5.32641 0.308531 5.63905C0.107208 5.95168 0.000102964 6.31565 0 6.6875L0 49.3125C8.97527e-05 49.6367 0.0815189 49.9556 0.236829 50.2402C0.392139 50.5248 0.616364 50.7658 0.888967 50.9412C1.16157 51.1167 1.47384 51.2209 1.79716 51.2444C2.12049 51.2679 2.44453 51.2098 2.73963 51.0756C6.15738 49.5256 11.6638 47.6618 16.9996 47.1231C22.4595 46.5729 27.0359 47.4602 29.4888 50.5215C29.6703 50.7478 29.9003 50.9304 30.1619 51.0559C30.4235 51.1814 30.7099 51.2466 31 51.2466C31.2901 51.2466 31.5765 51.1814 31.8381 51.0559C32.0997 50.9304 32.3297 50.7478 32.5113 50.5215C34.9641 47.4602 39.5405 46.5729 44.9965 47.1231C50.3363 47.6618 55.8465 49.5256 59.2604 51.0756C59.5555 51.2098 59.8795 51.2679 60.2028 51.2444C60.5262 51.2209 60.8384 51.1167 61.111 50.9412C61.3836 50.7658 61.6079 50.5248 61.7632 50.2402C61.9185 49.9556 61.9999 49.6367 62 49.3125V6.6875C61.9999 6.31565 61.8928 5.95168 61.6915 5.63905C61.4901 5.32641 61.2031 5.07832 60.8646 4.92437C57.1756 3.2465 51.2546 1.23537 45.3879 0.642496C40.3504 0.134871 34.8169 0.626996 31 3.90912Z" fill="#2A363B"/>
</svg>
